<?xml version="1.0" encoding="utf-8"?>
<!-- Generator: Adobe Illustrator 25.2.0, SVG Export Plug-In . SVG Version: 6.00 Build 0)  -->
<svg version="1.1" id="Layer_1" xmlns="http://www.w3.org/2000/svg" xmlns:xlink="http://www.w3.org/1999/xlink" x="0px" y="0px"
	 viewBox="0 0 1000 1000" style="enable-background:new 0 0 1000 1000;" xml:space="preserve">
<style type="text/css">
	.st0{fill:#40445D;}
	.st1{fill:#FCD49B;}
</style>
<g>
	<path class="st0" d="M990.2,772c-5.6,22.8-8.6,46.6-17.4,68.1c-33.4,81.4-94.2,130.7-180.9,146.5
		c-99.2,18.1-199.9-32.4-248.5-121.6c-51-93.7-29.8-218.3,50.7-288.4c53.9-47.1,116.4-66.8,187.5-59.2
		c97.5,10.4,182.3,87.3,202.8,183.7c2.2,10.2,3.9,20.6,5.9,30.8C990.2,745.2,990.2,758.6,990.2,772z M753,595.8
		c-86.5-0.1-157.2,70.6-157.2,157.1c0,86.2,70.1,156.5,156.3,156.9c86.4,0.5,157.4-70,157.7-156.6C910.1,666.8,839.5,596,753,595.8z
		"/>
	<path class="st0" d="M216.6,9.8c15.2,7.6,19.8,20.1,19.4,36.7c-0.9,37.3-0.2,74.7-0.3,112c0,20.8-10.4,31.1-31.1,31.2
		c-6.4,0-12.8,0.2-19.1-0.1c-14.5-0.7-25.9-11.1-26.1-25.4c-0.4-43.1-0.3-86.2-0.1-129.2c0.1-12.7,9.2-19.4,19-25.2
		C191.1,9.8,203.8,9.8,216.6,9.8z"/>
	<path class="st0" d="M637.9,9.8c15.2,7.6,19.8,20.1,19.4,36.7c-0.9,37.3-0.2,74.7-0.3,112c0,20.8-10.4,31.1-31.1,31.2
		c-6.4,0-12.8,0.2-19.1-0.1c-14.5-0.7-25.9-11.1-26.1-25.4c-0.4-43.1-0.3-86.2-0.1-129.2c0.1-12.7,9.2-19.4,19-25.2
		C612.3,9.8,625.1,9.8,637.9,9.8z"/>
	<path class="st0" d="M737.3,453.1c0-46.7,0-93.2,0-140.2c-219.5,0-438.3,0-658.6,0c0,3.2,0,6.5,0,9.9c0,117.1,0,234.3,0,351.4
		c0,33.6,18.4,51.8,52.3,51.8c100.5,0,201.1,0,301.6,0c3.8,0,7.5,0,10.7,0c1.9,25.9,3.6,50.9,5.5,76.6c-2.9,0-6.3,0-9.8,0
		c-120.3,0-240.7,0-361,0c-43.4,0-68.3-24.9-68.3-68.3c0-189.3,0-378.5,0-567.8c0-44,24.8-68.6,68.9-68.7c13.7,0,27.3,0,42.2,0
		c0,21,0,41.3,0,61.6c0,17.9,4.5,34.5,17.5,47.1c7.1,6.9,15.8,13.5,25,16.9c20.5,7.5,42.3,7.1,63.2,1.7
		c29.2-7.6,47.1-32.7,47.4-64.2c0.2-20.7,0-41.3,0-62.5c89.4,0,178,0,267.5,0c0.2,2.5,0.5,5.3,0.5,8c0.1,18.2-0.2,36.4,0.1,54.6
		c0.5,39.1,28.1,66.5,67.3,67.1c6.7,0.1,13.4,0.2,20.1,0c37.6-1,64.9-28.2,65.6-65.8c0.4-21,0.1-42,0.1-65.4
		c22.4,1.2,44.7-0.1,65.9,4c28.2,5.4,45.1,30.8,45.1,62c0.1,60,0,120,0,180c0,38.3,0,76.5,0,115.1
		C783.4,456.3,761.1,454.7,737.3,453.1z"/>
	<path class="st1" d="M286.2,427.1c0.2,33.4-27.2,61.1-60.6,61c-32.7,0-60.2-27.2-60.7-60.1c-0.5-33,26.9-61,60.3-61.5
		C258.3,365.9,286.1,393.5,286.2,427.1z"/>
	<path class="st1" d="M651.2,427.2c0.1,33.1-27.9,61.1-60.9,60.9c-33.4-0.2-60.7-27.8-60.4-61.2c0.3-33.2,27-60,60.2-60.4
		C623,366,651.1,394,651.2,427.2z"/>
	<path class="st1" d="M286.2,612.3c-1,33.4-28.3,60.2-61,59.6c-33.8-0.6-61.4-29.3-60.2-62.5c1.2-33.1,29.5-60.2,61.7-59.1
		C260.7,551.5,287.1,579.1,286.2,612.3z"/>
	<path class="st1" d="M347.3,426c1.5-34,30-61.2,62.2-59.5c34.1,1.8,61.2,30.3,59.2,62.5c-2,33.8-29.6,60.2-61.7,59.1
		C373.3,486.9,345.9,458.4,347.3,426z"/>
	<path class="st1" d="M408.5,671.9c-32.8,0.5-61-27.5-61.2-60.6c-0.2-32.9,27.9-61.1,60.9-61c32.8,0.1,60,27,60.7,60.2
		C469.6,643.2,441.9,671.4,408.5,671.9z"/>
	<path class="st0" d="M783.2,646.3c0,45.7,0,90.7,0,136.4c-45.5,0-90.9,0-137,0c0-17,0-34.4,0-52.4c27.4,0,54.7,0,83,0
		c0-28.2,0-55.8,0-84C747.6,646.3,765,646.3,783.2,646.3z"/>
</g>
</svg>
