<?xml version="1.0" encoding="utf-8"?>
<!-- Svg Vector Icons : http://www.onlinewebfonts.com/icon -->
<!DOCTYPE svg PUBLIC "-//W3C//DTD SVG 1.1//EN" "http://www.w3.org/Graphics/SVG/1.1/DTD/svg11.dtd">
<svg version="1.1" xmlns="http://www.w3.org/2000/svg" xmlns:xlink="http://www.w3.org/1999/xlink" x="0px" y="0px" viewBox="0 0 1000 1000" enable-background="new 0 0 1000 1000" xml:space="preserve">
<metadata> Svg Vector Icons : http://www.onlinewebfonts.com/icon </metadata>
<g><g transform="translate(0.000000,511.000000) scale(0.100000,-0.100000)"><path d="M3530.7,4984.2c-1781-198.2-3211.7-1640.9-3405-3434C91.9,1253,91.9,211.4,123.3-76.2c72.5-640.4,265.8-1191.4,594.5-1696.5c560.6-865.1,1406.5-1454.8,2414.2-1691.6c273.1-62.8,323.8-65.3,833.7-65.3c512.3,0,560.7,2.4,831.3,67.7c338.3,79.7,584.8,166.7,862.7,304.5c222.3,111.2,529.2,292.4,529.2,314.2c0,7.2-96.7,108.8-215.1,227.1L5758.8-2401l-142.6-87c-459.2-277.9-1092.3-451.9-1650.6-451.9c-447.1,0-957,113.6-1375,304.5c-616.2,282.7-1222.8,874.8-1532.1,1495.9c-70.1,145-210.3,497.8-210.3,534.1c0,7.2,77.3-106.3,174-248.9c422.9-635.6,1104.4-1150.3,1836.6-1394.4c993.2-326.2,2133.9-183.7,3015.9,381.8l132.9,84.6L7240.2-3010c1906.7-1897,1769-1776.2,2054.1-1776.2c244.1,0,432.6,113.6,551,335.9c74.9,140.2,72.5,396.3-4.8,543.7c-36.3,72.5-437.4,490.6-1237.3,1292.9L7421.4-1429.5l94.2,217.5c111.2,258.6,181.2,488.2,248.9,807.1c38.7,188.5,50.7,362.5,60.4,944.9c16.9,944.9-21.8,1292.9-200.6,1831.8C7056.5,4082.8,5331.1,5184.8,3530.7,4984.2z M4509.4,4343.8c654.9-103.9,1239.7-408.4,1742.4-913.5c391.5-393.9,623.5-763.6,795.1-1278.4c108.8-326.2,157.1-638,157.1-1022.2c0-379.4-48.3-683.9-159.5-1024.6c-227.2-683.9-679.1-1273.6-1285.6-1677.1c-524.4-348-1034.3-512.3-1672.3-536.5c-584.8-24.2-1039.1,72.5-1558.7,328.7C1604.6-1325.6,942.5-445.9,761.2,564.2c-60.4,335.9-55.6,882.1,12.1,1201.1c188.5,896.6,688.7,1631.2,1447.5,2121.8C2892.7,4319.6,3666,4474.3,4509.4,4343.8z"/><path d="M2138.7,1968.3c-161.9-58-258.6-130.5-316.6-239.2c-181.2-331.1-2.4-621.1,495.4-802.3C2663.1,801,2709,764.8,2709,615c0-224.8-495.4-234.4-546.2-9.7c-7.2,36.3-16.9,82.2-24.2,99.1c-4.8,19.3-72.5,29-229.6,29h-222.3l16.9-99.1c19.3-120.8,87-258.6,164.3-328.7c29-29,120.8-82.2,200.6-120.8c130.5-60.4,171.6-67.7,398.7-67.7c304.5,0,439.8,43.5,563.1,178.8c157.1,174,176.4,389.1,53.2,594.5C3008.7,1021,2854,1120,2564,1228.8c-290,106.3-348,149.8-357.7,258.6c-9.7,123.2,77.3,188.5,253.7,188.5c106.3,0,140.2-12.1,188.5-60.4c33.8-31.4,60.4-79.7,60.4-108.8c0-45.9,14.5-48.3,232-48.3h234.4l-16.9,74.9c-41.1,207.8-203,384.2-410.8,444.6C2581,2028.7,2291,2023.9,2138.7,1968.3z"/><path d="M5111.1,1963.4c-270.7-103.9-444.7-350.4-493-698.4c-29-210.2-14.5-381.8,50.8-609c58-205.4,224.7-396.3,413.3-478.5C5273.1,93,5572.7,95.4,5754,180c234.4,111.2,379.4,302.1,444.6,577.6c132.9,558.2-96.7,1094.7-522,1220.4C5505.1,2028.7,5263.4,2021.4,5111.1,1963.4z M5596.9,1617.9c33.8-21.7,84.6-84.6,113.6-142.6c50.7-89.4,55.6-135.3,55.6-415.7c0-277.9-7.2-326.2-53.2-413.2c-94.3-178.8-251.3-236.8-425.3-159.5c-84.6,38.7-118.4,72.5-164.3,164.3c-50.7,103.9-58,152.2-58,408.4c0,261,4.8,302.1,60.4,410.8C5222.3,1666.2,5427.7,1729,5596.9,1617.9z"/><path d="M3289,1059.6V129.2h640.4h640.4v169.2v169.2H4159h-410.8v229.6v229.6h350.4h352.8l-7.3,164.3l-7.2,161.9l-343.2,7.2l-345.6,7.3v190.9v193.3H4159h410.8v169.2V1990h-640.4H3289V1059.6z"/></g></g>
</svg>