<?xml version="1.0" encoding="utf-8"?>
<!-- Generator: Adobe Illustrator 24.3.0, SVG Export Plug-In . SVG Version: 6.00 Build 0)  -->
<svg version="1.1" id="Layer_1" xmlns="http://www.w3.org/2000/svg" xmlns:xlink="http://www.w3.org/1999/xlink" x="0px" y="0px"
	 viewBox="0 0 516.26 502.47" style="enable-background:new 0 0 516.26 502.47;" xml:space="preserve">
<style type="text/css">
	.st0{fill:#48484A;}
	.st1{fill:#FCD49B;}
</style>
<path class="st0" d="M26.5,113.45c154.83,0,308.63,0,463.35,0c0.19,3.33,0.51,6.34,0.51,9.35c0.03,111.73,0.03,223.46,0.02,335.18
	c0,17.79-6.84,24.73-24.43,24.73c-138.48,0.02-276.96,0.02-415.44,0c-17.27,0-24.43-6.93-24.43-23.78
	c-0.02-112.36,0-224.72,0.02-337.07C26.11,119.39,26.33,116.92,26.5,113.45z M257.38,356.75c-50.02,0-100.04,0-150.06,0
	c-9.12,0-18.25-0.2-27.37,0.1c-6.3,0.21-10.77,2.63-10.68,10.21c0.25,19.5,0.12,39,0.28,58.5c0.09,10.24,3.39,13.63,13.58,13.64
	c116.71,0.05,233.42,0.05,350.13,0c10.27,0,13.55-3.31,13.61-13.54c0.11-16.99,0.02-33.98,0.03-50.96
	c0.01-15.93-2-17.97-17.78-17.96C371.89,356.75,314.64,356.75,257.38,356.75z M344.62,343.26c28.94,0,57.87,0.04,86.81-0.02
	c13.18-0.03,15.42-2.24,15.43-15.29c0.05-55.67,0.06-111.35,0.04-167.02c0-11.94-2.61-14.65-14.2-14.66
	c-57.87-0.03-115.75-0.01-173.62,0.03c-13.18,0.01-15.46,2.2-15.47,15.26c-0.06,55.67-0.07,111.34-0.04,167.02
	c0.01,12.05,2.78,14.66,15.18,14.68C287.38,343.29,316,343.27,344.62,343.26z M145.83,255.49c-21.37,0-42.75-0.02-64.12,0.01
	c-6.39,0.01-12.4,0.91-12.39,9.27c0.01,22.31,0.14,44.63,0.3,66.94c0.06,8.23,4.39,11.63,12.56,11.6
	c42.43-0.14,84.86-0.02,127.3-0.09c10.02-0.02,12.86-2.9,12.91-12.9c0.1-20.12,0.08-40.23,0.02-60.35
	c-0.04-12.01-2.37-14.41-14.33-14.46C187.32,255.44,166.57,255.5,145.83,255.49z M146.15,233.92c0,0.02,0,0.04,0,0.06
	c20.75,0,41.49,0.06,62.24-0.02c11.57-0.04,13.96-2.4,14-13.72c0.07-19.8,0.08-39.61,0-59.41c-0.05-12.5-2.16-14.51-15.11-14.53
	c-33.32-0.03-66.64,0-99.96,0.01c-9.43,0-18.86-0.14-28.29,0.06c-6.24,0.13-9.84,3-9.76,9.91c0.24,21.37,0.16,42.74,0.35,64.12
	c0.1,10.73,2.8,13.45,13.34,13.5C104.03,233.98,125.09,233.92,146.15,233.92z"/>
<path class="st0" d="M489.65,92.49c-154.39,0-308.46,0-463.41,0c0-19.34-0.6-38.15,0.22-56.89c0.49-11.11,9.66-17.19,23.08-17.2
	c55.4-0.04,110.79-0.02,166.19-0.02c82.78,0,165.56,0,248.34,0c20.15,0,26.34,6.25,26.32,26.64c-0.02,14.79-0.05,29.59-0.1,44.38
	C490.29,90.02,490.05,90.63,489.65,92.49z M330,70.8c0,0.02,0,0.04,0,0.06c33.98,0,67.96-0.05,101.94,0.04
	c7.15,0.02,14.19-0.88,14.55-9.56c0.37-9.04-6.77-9.92-13.9-9.91c-68.28,0.03-136.56,0.03-204.83-0.02
	c-6.9-0.01-13.46,1.32-13.63,9.46c-0.19,8.86,6.64,10,13.93,9.98C262.04,70.74,296.02,70.8,330,70.8z M181.01,63.05
	c-0.01-1.44-0.03-2.89-0.04-4.33c-3.61-2.47-7.59-7.3-10.72-6.8c-3.63,0.58-9.07,5.9-9,9.06c0.07,3.3,5.45,8.54,9.09,9.08
	C173.48,70.53,177.42,65.6,181.01,63.05z M97.27,62.74c-0.04-1.41-0.08-2.81-0.12-4.22c-3.74-2.36-7.84-6.98-11.12-6.46
	c-3.5,0.56-8.75,6.12-8.58,9.25c0.17,3.32,5.63,8.57,9.13,8.86C89.91,70.45,93.69,65.43,97.27,62.74z M129.77,50.03
	c-1.42-0.02-2.83-0.03-4.25-0.05c-2.39,3.69-7.04,7.7-6.58,11c0.5,3.58,5.74,6.5,8.91,9.71c3.15-3.2,8.49-6.18,8.83-9.65
	C137.02,57.64,132.28,53.73,129.77,50.03z"/>
<path class="st1" d="M330,70.8c-33.98,0-67.96-0.06-101.94,0.05c-7.29,0.02-14.11-1.12-13.93-9.98c0.17-8.14,6.73-9.47,13.63-9.46
	c68.28,0.05,136.56,0.05,204.83,0.02c7.13,0,14.26,0.88,13.9,9.91c-0.35,8.68-7.39,9.57-14.55,9.56
	c-33.98-0.09-67.96-0.04-101.94-0.04C330,70.84,330,70.82,330,70.8z"/>
<path class="st1" d="M427.56,377.15c0,13.06-0.02,25.28,0.01,37.51c0.01,6.76-5.06,5.17-8.8,5.18c-38.09,0.1-76.17,0.09-114.26,0.09
	c-68.3,0-136.61-0.2-204.91,0.17c-8.88,0.05-11.44-2.58-10.87-11.12c0.69-10.29,0.16-20.66,0.16-31.83
	C201.87,377.15,314.01,377.15,427.56,377.15z"/>
<path class="st0" d="M427.02,166.89c0,52.78,0,104.52,0,156.77c-54.52,0-108.46,0-163.15,0c0-52.25,0-104.21,0-156.77
	C318.2,166.89,372.14,166.89,427.02,166.89z M333.59,244.07c-19.48,19.41-36.33,36.32-53.33,53.09c-5.02,4.95-8.29,10.23-2.37,16.15
	c6.11,6.11,11.29,2.13,16.07-2.75c7.7-7.85,15.62-15.5,23.3-23.38c9.13-9.38,18.1-18.91,27.27-28.52c4.5,4.3,7.46,7.11,10.4,9.94
	c14.26,13.74,28.58,27.42,42.73,41.28c5.05,4.94,10.39,8.06,16.21,2.1c6.06-6.2,2-11.37-2.96-16.03c-2.98-2.8-5.9-5.66-8.74-8.6
	c-13.91-14.41-27.79-28.86-42.22-43.85c12.71-12.66,25.83-25.7,38.91-38.76c4.67-4.66,10.27-8.79,13.55-14.3
	c1.98-3.32,0.34-8.82,0.32-13.34c-4.52,0.09-9.25-0.57-13.49,0.55c-2.64,0.7-4.58,4.1-6.8,6.33
	c-15.47,15.53-30.93,31.07-46.81,47.03c-3.18-2.98-5.72-5.24-8.12-7.63c-14.91-14.87-29.54-30.05-44.92-44.42
	c-2.88-2.69-9.04-3.43-13.16-2.57c-2.01,0.42-3.85,6.63-3.8,10.19c0.04,2.5,3.11,5.26,5.32,7.38
	C298.17,210.5,315.52,226.91,333.59,244.07z"/>
<path class="st0" d="M89.37,323.57c0-16.38,0-31.96,0-48.14c38.06,0,75.6,0,113.88,0c0,15.93,0,31.73,0,48.14
	C165.46,323.57,127.88,323.57,89.37,323.57z"/>
<path class="st0" d="M88.86,166.88c38.89,0,76.4,0,114.52,0c0,16.09,0,31.66,0,48c-2.36,0.32-4.71,0.91-7.05,0.91
	c-32.96,0.06-65.92-0.09-98.88,0.16c-6.36,0.05-8.97-1.58-8.72-8.41C89.19,194.4,88.86,181.23,88.86,166.88z"/>
</svg>
